# AST/ASF file generated using VICON BodyLanguage
# -----------------------------------------------
:version 1.10
:name VICON
:units
  mass 1.0
  length 0.45
  angle deg
:documentation
   .ast/.asf automatically generated from VICON data using
   VICON BodyBuilder and BodyLanguage model FoxedUp or BRILLIANT.MOD
:root
   order TX TY TZ RX RY RZ
   axis XYZ
   position 0 0 0  
   orientation 0 0 0 
:bonedata
  begin
     id 1 
     name lhipjoint
     direction 0.682418 -0.694059 0.22932 
     length 2.25561 
     axis 0 0 0  XYZ
  end
  begin
     id 2 
     name lfemur
     direction 0.34202 -0.939693 0  
     length 6.96448  
     axis 0 0 20  XYZ
    dof rx ry rz
    limits (-160.0 20.0)
           (-70.0 70.0)
           (-60.0 70.0)
  end
  begin
     id 3 
     name ltibia
     direction 0.34202 -0.939693 0   
     length 6.88553   
     axis 0 0 20   XYZ
    dof rx
    limits (-10.0 170.0)
  end
  begin
     id 4 
     name lfoot
     direction 0.0723587 -0.198804 0.977364   
     length 1.88518   
     axis -90 7.62852e-016 20   XYZ
    dof rx rz
    limits (-45.0 90.0)
           (-70.0 20.0)
  end
  begin
     id 5 
     name ltoes
     direction 1.53558e-011 -4.21962e-011 1   
     length 0.952124   
     axis -90 7.62852e-016 20   XYZ
    dof rx
    limits (-90.0 20.0)
  end
  begin
     id 6 
     name rhipjoint
     direction -0.657603 -0.71533 0.236348   
     length 2.18854  
     axis 0 0 0  XYZ 
  end
  begin
     id 7 
     name rfemur
     direction -0.34202 -0.939693 0   
     length 6.86686   
     axis 0 0 -20   XYZ
    dof rx ry rz
    limits (-160.0 20.0)
           (-70.0 70.0)
           (-70.0 60.0)
  end
  begin
     id 8 
     name rtibia
     direction -0.34202 -0.939693 0   
     length 6.59503   
     axis 0 0 -20   XYZ
    dof rx
    limits (-10.0 170.0)
 end
 begin
     id 9 
     name rfoot
     direction -0.101977 -0.280179 0.954516   
     length 1.93723  
     axis -90 -7.62852e-016 -20   XYZ
    dof rx rz
    limits (-45.0 90.0)
           (-20.0 70.0)
  end
  begin
     id 10 
     name rtoes
     direction -1.53564e-011 -4.21897e-011 1   
     length 0.970315   
     axis -90 -7.62852e-016 -20   XYZ
    dof rx
    limits (-90.0 20.0)
  end
  begin
     id 11 
     name lowerback
     direction -0.0339559 0.999421 -0.00235966   
     length 1.88543   
     axis 0 0 0   XYZ
    dof rx ry rz
    limits (-20.0 45.0)
           (-30.0 30.0)
           (-30.0 30.0)
  end
  begin
     id 12 
     name upperback
     direction 0.00401003 0.999739 0.0224689   
     length 1.8856   
     axis 0 0 0   XYZ
    dof rx ry rz
    limits (-20.0 45.0)
           (-30.0 30.0)
           (-30.0 30.0)
  end
  begin
     id 13 
     name thorax
     direction 0.0198619 0.999546 0.0226536   
     length 1.88352   
     axis 0 0 0   XYZ
    dof rx ry rz
    limits (-20.0 45.0)
           (-30.0 30.0)
           (-30.0 30.0)
  end
  begin
     id 14 
     name lowerneck
     direction -0.0461848 0.998632 0.0245198   
     length 1.34895   
     axis 0 0 0   XYZ
    dof rx ry rz
    limits (-20.0 45.0)
           (-30.0 30.0)
           (-30.0 30.0)
  end
  begin
     id 15 
     name upperneck
     direction -0.0180627 0.994724 -0.100984   
     length 1.35214   
     axis 0 0 0   XYZ
    dof rx ry rz
    limits (-20.0 45.0)
           (-30.0 30.0)
           (-30.0 30.0)
  end
  begin
     id 16
     name head
     direction -0.00374772 0.999293 -0.037403  
     length 1.3568  
     axis 0 0 0   XYZ
    dof rx ry rz
    limits (-20.0 45.0)
           (-30.0 30.0)
           (-30.0 30.0)
  end
  begin
     id 17 
     name lclavicle
     direction 0.971773 0.191119 0.138311  
     length 2.84954  
     axis 0 0 0   XYZ
    dof ry rz
    limits (-20.0 10.0)
           (0.0 20.0)
  end
  begin
     id 18 
     name lhumerus
     direction 1 -4.4897e-011 -2.43761e-027   
     length 4.40919   
     axis 180 -30 -90   XYZ
    dof rx ry rz
    limits (-60.0 90.0)
           (-90.0 90.0)
           (-90.0 90.0)
  end
  begin
     id 19
     name lradius
     direction 1 -4.4896e-011 -9.1621e-027   
     length 3.03857   
     axis 180 -30 -90   XYZ
    dof rx
    limits (-10.0 170.0)
  end
  begin
     id 20
     name lwrist
     direction 1 -4.4896e-011 -1.41363e-026   
     length 1.51928   
     axis 1.07133e-014 90 90   XYZ
    dof ry
    limits (-180.0 0.0)
 end
  begin
     id 21 
     name lhand
     direction 1 -4.48978e-011 -2.82725e-026   
     length 0.523208   
     axis 1.80403e-014 90 90   XYZ
    dof rx rz
    limits (-90.0 90.0)
           (-45.0 45.0)
  end
  begin
     id 22 
     name lfingers
     direction 1 -4.48977e-011 -5.6545e-026   
     length 0.421824   
     axis 3.60806e-014 90 90   XYZ
    dof rx
    limits (0.0 90.0)
  end
  begin
     id 23
     name lthumb
     direction 0.707107 -6.34962e-011 0.707107   
     length 0.605657   
     axis -90 45 2.85299e-015   XYZ
    dof rx rz
    limits (-45.0 45.0)
           (-45.0 45.0)
  end
  begin
     id 24 
     name rclavicle
     direction -0.957247 0.24311 0.156766   
     length 3.12406  
     axis 0 0 0   XYZ 
    dof ry rz
    limits (-10.0 20.0)
           (-20.0 0.0)
  end
  begin
     id 25 
     name rhumerus
     direction -1 -4.48964e-011 -1.70632e-027  
     length 4.61969   
     axis 180 30 90   XYZ
    dof rx ry rz
    limits (-90.0 60.0)
           (-90.0 90.0)
           (-90.0 90.0)
  end
  begin
     id 26 
     name rradius
     direction -1 -4.48966e-011 -6.60395e-027   
     length 3.09382   
     axis 180 30 90   XYZ
    dof rx
    limits (-10.0 170.0)
  end
  begin
     id 27 
     name rwrist
     direction -1 -4.48963e-011 -1.41363e-026   
     length 1.54691   
     axis 1.07133e-014 -90 -90   XYZ
    dof ry
    limits (-180.0 0.0)
  end
  begin
     id 28
     name rhand
     direction -1 -4.49013e-011 -2.82725e-026   
     length 0.500896   
     axis 1.80403e-014 -90 -90   XYZ
    dof rx rz
    limits (-90.0 90.0)
           (-45.0 45.0)
  end
  begin
     id 29
     name rfingers
     direction -1 -4.48902e-011 -5.6545e-026   
     length 0.403835   
     axis 3.60806e-014 -90 -90   XYZ
    dof rx
    limits (0.0 90.0)
  end
  begin
     id 30
     name rthumb
     direction -0.707107 -6.34953e-011 0.707107   
     length 0.579829   
     axis -90 -45 -2.85299e-015   XYZ
    dof rx rz
    limits (-45.0 45.0)
           (-45.0 45.0)
  end
:hierarchy
  begin
    root lhipjoint rhipjoint lowerback
    lhipjoint lfemur
    lfemur ltibia
    ltibia lfoot
    lfoot ltoes
    rhipjoint rfemur
    rfemur rtibia
    rtibia rfoot
    rfoot rtoes
    lowerback upperback
    upperback thorax
    thorax lowerneck lclavicle rclavicle
    lowerneck upperneck
    upperneck head
    lclavicle lhumerus
    lhumerus lradius
    lradius lwrist
    lwrist lhand lthumb
    lhand lfingers
    rclavicle rhumerus
    rhumerus rradius
    rradius rwrist
    rwrist rhand rthumb
    rhand rfingers
  end

#!OML:ASF E:\madness\Project 1\Capture day 1\Session 1\Female1.ASF
:FULLY-SPECIFIED
:DEGREES
271
root 7.72403 15.8776 3.83977 -202.926 -66.7546 218.896
lowerback 21.4748 -0.424997 -4.91879
upperback 7.87105 -2.098 3.34614
thorax -3.09294 -1.46369 6.94055
lowerneck -6.04822 -2.0592 1.83954
upperneck 16.6585 -3.96449 3.30652
head 6.07806 -1.7079 0.447011
rclavicle 4.45278e-014 -4.13472e-014
rhumerus -16.2954 -29.6241 -12.9761
rradius 133.753
rwrist -27.4368
rhand -13.7634 -41.2044
rfingers 7.12502
rthumb 12.3572 -70.8192
lclavicle 4.45278e-014 -4.13472e-014
lhumerus -15.4257 -17.8192 83.058
lradius 81.9254
lwrist -4.90106
lhand -41.7418 -9.34714
lfingers 7.12502
lthumb -14.6464 20.1156
rfemur -43.2208 9.22679 8.44991
rtibia 54.9159
rfoot 5.22678 -3.03355
rtoes -5.56989
lfemur -37.1928 -7.40363 -10.8132
ltibia 46.007
lfoot -15.9947 15.8964
ltoes 11.8142
272
root 7.72839 15.894 3.85451 -202.851 -66.1914 218.697
lowerback 21.721 -0.16153 -4.52035
upperback 8.05928 -1.7161 3.53886
thorax -3.07925 -1.29571 6.84014
lowerneck -6.60326 -2.17777 1.39979
upperneck 16.9237 -4.10774 3.40601
head 6.26938 -1.77918 0.531763
rclavicle 1.04958e-013 -1.27222e-014
rhumerus -15.136 -30.0158 -13.3165
rradius 135.404
rwrist -26.9468
rhand -14.5245 -41.0433
rfingers 7.12502
rthumb 11.6233 -70.701
lclavicle 1.04958e-013 -1.27222e-014
lhumerus -16.2207 -18.8836 83.9437
lradius 82.2902
lwrist -4.50106
lhand -41.6871 -9.27146
lfingers 7.12502
lthumb -14.5937 20.1951
rfemur -44.3625 9.10777 8.69397
rtibia 57.0231
rfoot 5.09428 -3.53619
rtoes -6.69403
lfemur -36.8322 -7.58244 -10.5583
ltibia 45.7733
lfoot -15.7752 16.3282
ltoes 13.0972
273
root 7.73168 15.912 3.87458 -202.637 -65.6294 218.36
lowerback 21.9846 -0.00502593 -4.30157
upperback 8.16972 -1.50067 3.70199
thorax -3.12583 -1.20371 6.8517
lowerneck -6.63904 -2.14037 1.50028
upperneck 16.9857 -4.00183 3.00312
head 6.2831 -1.74927 0.394904
rclavicle 5.24792e-014 -3.18055e-014
rhumerus -13.5897 -29.8643 -14.3278
rradius 137.041
rwrist -26.337
rhand -15.1587 -41.1884
rfingers 7.12502
rthumb 11.0117 -70.8796
lclavicle 5.24792e-014 -3.18055e-014
lhumerus -17.4126 -19.5294 84.7446
lradius 82.6434
lwrist -4.29351
lhand -41.4773 -8.94743
lfingers 7.12502
lthumb -14.3916 20.5337
rfemur -45.5207 8.99079 8.84299
rtibia 59.0854
rfoot 5.026 -3.87907
rtoes -7.76958
lfemur -36.4578 -7.66314 -10.4068
ltibia 45.513
lfoot -15.5352 16.7108
ltoes 14.3365
274
root 7.73869 15.9275 3.89663 -202.141 -65.2243 217.867
lowerback 22.1419 0.0713341 -4.10836
upperback 8.15479 -1.372 3.80265
thorax -3.24314 -1.13924 6.8275
lowerneck -6.04383 -2.11608 1.82261
upperneck 16.6277 -3.85064 2.2951
head 6.04383 -1.72021 0.140614
rclavicle 5.56597e-014 6.36111e-015
rhumerus -12.0102 -29.5147 -15.5206
rradius 138.607
rwrist -26.188
rhand -15.449 -41.2264
rfingers 7.12502
rthumb 10.7317 -70.9322
lclavicle 5.56597e-014 6.36111e-015
lhumerus -18.8332 -20.155 85.461
lradius 82.8703
lwrist -4.12189
lhand -41.3241 -9.01085
lfingers 7.12502
lthumb -14.244 20.4807
rfemur -46.8249 8.81371 8.75073
rtibia 61.0839
rfoot 5.14567 -4.37922
rtoes -7.17042
lfemur -36.2662 -7.68056 -10.3993
ltibia 45.2208
lfoot -15.3632 16.9582
ltoes 15.0774
275
root 7.74922 15.9412 3.91548 -201.456 -64.8995 217.203
lowerback 22.268 0.195555 -4.00149
upperback 8.22413 -1.20736 3.91058
thorax -3.25491 -1.06819 6.84875
lowerneck -5.87563 -2.18929 1.54793
upperneck 16.4835 -3.87425 2.14252
head 5.97005 -1.76015 0.140171
rclavicle -1.27222e-014 4.92986e-014
rhumerus -10.589 -29.3038 -16.7084
rradius 140.203
rwrist -26.4661
rhand -15.531 -40.4694
rfingers 7.12502
rthumb 10.6526 -70.1794
lclavicle -1.27222e-014 4.92986e-014
lhumerus -19.952 -20.8668 86.0311
lradius 82.9179
lwrist -3.7411
lhand -41.2929 -8.96661
lfingers 7.12502
lthumb -14.2139 20.527
rfemur -48.1739 8.7117 8.47943
rtibia 63.0189
rfoot 5.63772 -4.94484
rtoes -5.72947
lfemur -36.1534 -7.5408 -10.51
ltibia 44.9154
lfoot -15.076 17.1849
ltoes 14.4354
276
root 7.76325 15.9588 3.93617 -201.007 -64.6236 216.667
lowerback 22.6418 0.311637 -3.87892
upperback 8.31991 -1.06618 4.00047
thorax -3.35928 -1.00988 6.8558
lowerneck -5.89718 -2.18669 1.735
upperneck 16.3905 -3.79426 1.61842
head 5.92961 -1.74538 -0.0487933
rclavicle -5.48646e-014 1.59028e-014
rhumerus -9.36702 -28.6753 -18.196
rradius 141.777
rwrist -26.2805
rhand -15.641 -40.1241
rfingers 7.12502
rthumb 10.5465 -69.8395
lclavicle -5.48646e-014 1.59028e-014
lhumerus -21.0649 -21.484 86.4474
lradius 82.9125
lwrist -3.39467
lhand -41.0642 -9.00971
lfingers 7.12502
lthumb -13.9935 20.4993
rfemur -49.365 8.60895 8.23988
rtibia 64.8718
rfoot 6.23365 -5.15829
rtoes -5.67033
lfemur -35.958 -7.35803 -10.6289
ltibia 44.6372
lfoot -14.8511 17.2151
ltoes 14.6304
277
root 7.7826 15.9731 3.95972 -200.57 -64.4814 216.317
lowerback 22.9627 0.419344 -3.45392
upperback 8.27118 -0.850864 3.9552
thorax -3.61478 -0.890352 6.51797
lowerneck -5.72529 -2.32637 2.63177
upperneck 16.2719 -3.94533 0.814556
head 5.82896 -1.82413 -0.453858
rclavicle 6.04305e-014 -3.18055e-015
rhumerus -8.86865 -27.4989 -19.7748
rradius 143.239
rwrist -25.4519
rhand -16.1062 -40.5128
rfingers 7.12502
rthumb 10.0977 -70.2505
lclavicle 6.04305e-014 -3.18055e-015
lhumerus -22.2984 -22.4722 86.7588
lradius 82.7646
lwrist -3.2257
lhand -40.7662 -9.01957
lfingers 7.12502
lthumb -13.7063 20.5091
rfemur -50.6976 8.31291 7.96631
rtibia 66.5926
rfoot 6.7631 -5.14924
rtoes -6.92416
lfemur -35.9841 -7.11007 -10.7578
ltibia 44.3182
lfoot -14.7822 16.9197
ltoes 15.7178
278
root 7.8103 15.9769 3.98152 -199.718 -64.5845 215.986
lowerback 22.8 0.395606 -3.19669
upperback 8.18331 -0.805683 4.04611
thorax -3.63838 -0.858088 6.45292
lowerneck -5.6004 -2.46086 2.65305
upperneck 16.0732 -4.09816 0.72909
head 5.74119 -1.90357 -0.489176
rclavicle -2.78299e-014 2.70347e-014
rhumerus -7.95981 -26.2089 -21.5048
rradius 144.488
rwrist -25.0019
rhand -16.3207 -40.4064
rfingers 7.12502
rthumb 9.89075 -70.1541
lclavicle -2.78299e-014 2.70347e-014
lhumerus -23.4149 -22.9622 87.1154
lradius 82.3912
lwrist -3.57197
lhand -40.7185 -8.93754
lfingers 7.12502
lthumb -13.6603 20.5942
rfemur -52.5335 7.74397 7.47757
rtibia 68.3011
rfoot 7.48213 -5.13758
rtoes -7.55947
lfemur -36.6251 -6.84883 -10.9384
ltibia 44.0433
lfoot -14.4552 16.5174
ltoes 15.614
279
root 7.81145 16.0015 4.00217 -199.492 -64.2887 215.149
lowerback 23.6779 0.386628 -3.68515
upperback 8.46469 -0.996514 4.47891
thorax -3.71854 -1.00316 7.29885
lowerneck -5.86661 -2.21846 1.32217
upperneck 16.1262 -3.6542 0.953619
head 5.83337 -1.74557 -0.176197
rclavicle -7.95139e-016 -1.43125e-014
rhumerus -6.23452 -24.3678 -23.4838
rradius 145.838
rwrist -25.291
rhand -16.0556 -39.7538
rfingers 7.12502
rthumb 10.1465 -69.4892
lclavicle -7.95139e-016 -1.43125e-014
lhumerus -24.7082 -21.5709 87.7009
lradius 82.0126
lwrist -4.50922
lhand -40.8481 -9.21405
lfingers 7.12502
lthumb -13.7853 20.3092
rfemur -53.0353 7.88551 7.05541
rtibia 69.7977
rfoot 8.29498 -4.95865
rtoes -6.59003
lfemur -35.8075 -6.5131 -11.3129
ltibia 43.689
lfoot -14.1667 16.4388
ltoes 14.5081
280
root 7.84253 16.0004 4.01814 -198.41 -64.4855 214.507
lowerback 23.6642 0.438554 -3.74397
upperback 8.45347 -0.935117 4.6266
thorax -3.72785 -0.975835 7.48267
lowerneck -6.36275 -2.34495 1.18462
upperneck 16.2935 -3.77748 0.738876
head 5.96922 -1.81926 -0.238117
rclavicle -1.66979e-014 -7.63333e-014
rhumerus -5.98999 -22.3555 -25.1081
rradius 146.793
rwrist -24.785
rhand -15.805 -39.6196
rfingers 7.12502
rthumb 10.3883 -69.343
lclavicle -1.66979e-014 -7.63333e-014
lhumerus -25.6945 -21.5381 87.9473
lradius 81.4129
lwrist -5.09151
lhand -41.1187 -10.01
lfingers 7.12502
lthumb -14.046 19.4954
rfemur -54.7516 7.41366 6.29066
rtibia 71.3048
rfoot 9.18659 -4.78864
rtoes -4.72892
lfemur -36.4086 -6.21819 -11.6384
ltibia 43.2855
lfoot -13.7838 16.0834
ltoes 12.7424
281
root 7.8521 16.0076 4.03337 -197.671 -64.4306 213.666
lowerback 23.9024 0.611751 -3.75338
upperback 8.64635 -0.752535 4.81109
thorax -3.65778 -0.91449 7.65281
lowerneck -6.77285 -2.50825 1.0757
upperneck 16.2865 -3.87598 0.136234
head 6.02633 -1.90839 -0.42225
rclavicle -4.77083e-015 -2.06736e-014
rhumerus -5.48338 -19.6868 -27.2306
rradius 147.031
rwrist -23.8979
rhand -15.2944 -39.0404
rfingers 7.12502
rthumb 10.8808 -68.7385
lclavicle -4.77083e-015 -2.06736e-014
lhumerus -26.5816 -21.4991 88.2433
lradius 80.696
lwrist -5.00884
lhand -41.1175 -10.5241
lfingers 7.12502
lthumb -14.0449 18.9814
rfemur -55.7438 7.30893 5.57787
rtibia 72.6055
rfoot 9.64332 -4.3773
rtoes -4.41733
lfemur -36.1596 -5.8025 -12.0902
ltibia 42.7932
lfoot -13.6109 15.817
ltoes 11.695
282
root 7.83756 16.03 4.04929 -197.555 -64.0605 212.593
lowerback 24.8729 0.913034 -3.82434
upperback 9.02469 -0.489698 5.00812
thorax -3.75505 -0.838266 7.87765
lowerneck -6.72358 -2.5869 0.888413
upperneck 15.8995 -3.8512 -0.376402
head 5.88818 -1.94124 -0.544484
rclavicle -1.03368e-014 5.56597e-014
rhumerus -5.06088 -16.8402 -29.4423
rradius 146.982
rwrist -23.8796
rhand -14.7503 -38.0859
rfingers 7.12502
rthumb 11.4056 -67.7557
lclavicle -1.03368e-014 5.56597e-014
lhumerus -27.7452 -21.2227 88.6222
lradius 80.0701
lwrist -4.3946
lhand -41.2188 -10.3891
lfingers 7.12502
lthumb -14.1425 19.1095
rfemur -55.6915 7.73812 4.99793
rtibia 73.7262
rfoot 9.71594 -3.72358
rtoes -5.15766
lfemur -34.8115 -5.37966 -12.5983
ltibia 42.33
lfoot -13.5724 15.6558
ltoes 11.332
283
root 7.84062 16.0377 4.06461 -197.128 -64.0825 211.799
lowerback 25.438 1.04357 -3.97529
upperback 9.24611 -0.418032 5.25017
thorax -3.78999 -0.840821 8.24013
lowerneck -6.65165 -2.58102 1.02377
upperneck 15.4338 -3.73475 -1.02965
head 5.71391 -1.92047 -0.755312
rclavicle 4.13472e-014 5.80451e-014
rhumerus -5.04962 -13.9287 -31.506
rradius 146.889
rwrist -24.0741
rhand -14.5138 -37.9051
rfingers 7.12502
rthumb 11.6337 -67.5622
lclavicle 4.13472e-014 5.80451e-014
lhumerus -28.6963 -20.0932 88.5928
lradius 79.3265
lwrist -5.47319
lhand -41.0091 -9.6494
lfingers 7.12502
lthumb -13.9404 19.8633
rfemur -56.2811 7.67958 4.29065
rtibia 74.7932
rfoot 9.91628 -3.04208
rtoes -5.05909
lfemur -34.3069 -5.1281 -13.0549
ltibia 41.9017
lfoot -13.385 15.3068
ltoes 11.0392
284
root 7.84789 16.0449 4.07694 -196.8 -64.0812 211.263
lowerback 25.8576 1.18361 -3.97513
upperback 9.46898 -0.294268 5.49861
thorax -3.76246 -0.817378 8.50053
lowerneck -6.88119 -2.65919 1.17838
upperneck 15.235 -3.74753 -1.69029
head 5.67381 -1.96078 -0.98869
rclavicle 3.4191e-014 -8.26944e-014
rhumerus -5.45325 -10.9765 -33.5199
rradius 146.671
rwrist -24.5059
rhand -14.5944 -38.4653
rfingers 7.12502
rthumb 11.5559 -68.1267
lclavicle 3.4191e-014 -8.26944e-014
lhumerus -29.5593 -19.153 88.4399
lradius 78.4639
lwrist -5.30677
lhand -41.2911 -9.49365
lfingers 7.12502
lthumb -14.2121 20.0001
rfemur -56.9737 7.64698 3.68571
rtibia 75.7552
rfoot 10.0777 -2.33614
rtoes -5.30669
lfemur -33.9956 -4.84937 -13.3681
ltibia 41.5155
lfoot -13.2441 14.9836
ltoes 11.3247
285
root 7.85318 16.0556 4.0857 -196.537 -63.894 210.652
lowerback 26.334 1.41599 -3.87353
upperback 9.78486 -0.0523356 5.72158
thorax -3.68051 -0.747236 8.63734
lowerneck -7.24877 -2.82514 1.03579
upperneck 15.0612 -3.85731 -2.26058
head 5.67118 -2.05797 -1.15461
rclavicle -4.85035e-014 -3.4191e-014
rhumerus -5.8459 -8.04486 -35.6429
rradius 145.909
rwrist -25.288
rhand -14.8926 -38.8309
rfingers 7.12502
rthumb 11.2683 -68.5082
lclavicle -4.85035e-014 -3.4191e-014
lhumerus -30.303 -18.2291 88.1142
lradius 77.552
lwrist -4.90509
lhand -41.5116 -9.2869
lfingers 7.12502
lthumb -14.4246 20.1918
rfemur -57.5183 7.91342 3.10684
rtibia 76.6475
rfoot 10.0109 -1.60933
rtoes -6.2974
lfemur -33.5106 -4.42531 -13.6585
ltibia 41.2268
lfoot -13.2266 14.746
ltoes 11.512
